<!--?xml version="1.0" standalone="no"?-->              <svg id="sw-js-blob-svg" viewBox="0 0 100 100" xmlns="http://www.w3.org/2000/svg">                    <defs>                         <linearGradient id="sw-gradient" x1="0" x2="1" y1="1" y2="0">                            <stop id="stop1" stop-color="rgba(24.432, 145.784, 255, 0.73)" offset="0%"></stop>                            <stop id="stop2" stop-color="rgba(223.369, 240.017, 255, 0.6)" offset="100%"></stop>                        </linearGradient>                    </defs>                <path fill="url(#sw-gradient)" d="M22.1,-24.6C30.3,-19.6,39.5,-14.1,41.9,-6.6C44.2,1,39.5,10.5,32.5,15C25.5,19.5,16.1,19,7.8,22.5C-0.6,26,-7.8,33.7,-14.4,33.8C-21,33.9,-27,26.5,-32.6,18.2C-38.2,9.9,-43.3,0.7,-40.2,-5.4C-37.1,-11.5,-25.9,-14.4,-17.8,-19.5C-9.7,-24.6,-4.9,-31.9,1.1,-33.2C7,-34.5,14,-29.7,22.1,-24.6Z" width="100%" height="100%" transform="translate(50 50)" stroke-width="0" style="transition: all 0.3s ease 0s;" stroke="url(#sw-gradient)"></path>              </svg>