<svg id="wave" style="transform:rotate(0deg); transition: 0.3s" viewBox="0 0 1440 250" version="1.1" xmlns="http://www.w3.org/2000/svg"><defs><linearGradient id="sw-gradient-0" x1="0" x2="0" y1="1" y2="0"><stop stop-color="rgba(0, 81, 154, 1)" offset="0%"></stop><stop stop-color="rgba(174, 217, 255, 1)" offset="100%"></stop></linearGradient></defs><path style="transform:translate(0, 0px); opacity:1" fill="url(#sw-gradient-0)" d="M0,100L30,108.3C60,117,120,133,180,129.2C240,125,300,100,360,104.2C420,108,480,142,540,162.5C600,183,660,192,720,162.5C780,133,840,67,900,45.8C960,25,1020,50,1080,83.3C1140,117,1200,158,1260,170.8C1320,183,1380,167,1440,137.5C1500,108,1560,67,1620,54.2C1680,42,1740,58,1800,54.2C1860,50,1920,25,1980,12.5C2040,0,2100,0,2160,8.3C2220,17,2280,33,2340,50C2400,67,2460,83,2520,100C2580,117,2640,133,2700,141.7C2760,150,2820,150,2880,145.8C2940,142,3000,133,3060,116.7C3120,100,3180,75,3240,58.3C3300,42,3360,33,3420,37.5C3480,42,3540,58,3600,58.3C3660,58,3720,42,3780,41.7C3840,42,3900,58,3960,87.5C4020,117,4080,158,4140,175C4200,192,4260,183,4290,179.2L4320,175L4320,250L4290,250C4260,250,4200,250,4140,250C4080,250,4020,250,3960,250C3900,250,3840,250,3780,250C3720,250,3660,250,3600,250C3540,250,3480,250,3420,250C3360,250,3300,250,3240,250C3180,250,3120,250,3060,250C3000,250,2940,250,2880,250C2820,250,2760,250,2700,250C2640,250,2580,250,2520,250C2460,250,2400,250,2340,250C2280,250,2220,250,2160,250C2100,250,2040,250,1980,250C1920,250,1860,250,1800,250C1740,250,1680,250,1620,250C1560,250,1500,250,1440,250C1380,250,1320,250,1260,250C1200,250,1140,250,1080,250C1020,250,960,250,900,250C840,250,780,250,720,250C660,250,600,250,540,250C480,250,420,250,360,250C300,250,240,250,180,250C120,250,60,250,30,250L0,250Z"></path></svg>