<svg id="wave" style="transform:rotate(0deg); transition: 0.3s" viewBox="0 0 1440 310" version="1.1" xmlns="http://www.w3.org/2000/svg"><defs><linearGradient id="sw-gradient-0" x1="0" x2="0" y1="1" y2="0"><stop stop-color="rgba(0, 81, 154, 1)" offset="0%"></stop><stop stop-color="rgba(174, 217, 255, 1)" offset="100%"></stop></linearGradient></defs><path style="transform:translate(0, 0px); opacity:1" fill="url(#sw-gradient-0)" d="M0,124L30,134.3C60,145,120,165,180,160.2C240,155,300,124,360,129.2C420,134,480,176,540,201.5C600,227,660,238,720,201.5C780,165,840,83,900,56.8C960,31,1020,62,1080,103.3C1140,145,1200,196,1260,211.8C1320,227,1380,207,1440,170.5C1500,134,1560,83,1620,67.2C1680,52,1740,72,1800,67.2C1860,62,1920,31,1980,15.5C2040,0,2100,0,2160,10.3C2220,21,2280,41,2340,62C2400,83,2460,103,2520,124C2580,145,2640,165,2700,175.7C2760,186,2820,186,2880,180.8C2940,176,3000,165,3060,144.7C3120,124,3180,93,3240,72.3C3300,52,3360,41,3420,46.5C3480,52,3540,72,3600,72.3C3660,72,3720,52,3780,51.7C3840,52,3900,72,3960,108.5C4020,145,4080,196,4140,217C4200,238,4260,227,4290,222.2L4320,217L4320,310L4290,310C4260,310,4200,310,4140,310C4080,310,4020,310,3960,310C3900,310,3840,310,3780,310C3720,310,3660,310,3600,310C3540,310,3480,310,3420,310C3360,310,3300,310,3240,310C3180,310,3120,310,3060,310C3000,310,2940,310,2880,310C2820,310,2760,310,2700,310C2640,310,2580,310,2520,310C2460,310,2400,310,2340,310C2280,310,2220,310,2160,310C2100,310,2040,310,1980,310C1920,310,1860,310,1800,310C1740,310,1680,310,1620,310C1560,310,1500,310,1440,310C1380,310,1320,310,1260,310C1200,310,1140,310,1080,310C1020,310,960,310,900,310C840,310,780,310,720,310C660,310,600,310,540,310C480,310,420,310,360,310C300,310,240,310,180,310C120,310,60,310,30,310L0,310Z"></path></svg>