<svg preserveAspectRatio="xMidYMid meet" version="1.0" viewBox="0 0 900.000000 900.000000" xmlns="http://www.w3.org/2000/svg"><g fill="black" stroke="none" transform="translate(0.000000,900.000000) scale(0.100000,-0.100000)"><path d="M2695 6810 c-43 -28 -493 -478 -521 -522 -35 -55 -33 -123 5 -174 16 -21 198 -205 404 -409 207 -203 566 -558 798 -788 l422 -418 -269 -274 c-148 -150 -509 -516 -803 -812 -294 -296 -544 -555 -557 -575 -29 -46 -31 -97 -4 -140 16 -27 282 -300 483 -496 53 -52 109 -69 166 -51 28 9 218 193 853 827 l818 817 812 -812 c447 -446 824 -816 837 -823 29 -15 112 -16 137 -2 31 17 505 495 530 534 29 46 31 102 5 143 -11 17 -233 245 -493 508 -260 264 -623 631 -807 817 l-334 339 527 523 c290 288 649 642 797 788 149 146 284 285 300 310 35 55 38 114 9 162 -26 44 -475 494 -522 524 -56 35 -113 33 -170 -8 -25 -18 -398 -383 -829 -810 -430 -428 -790 -778 -799 -778 -9 0 -332 312 -717 693 -747 737 -890 876 -938 907 -38 25 -100 25 -140 0z"></path></g></svg>